<?xml version="1.0" encoding="UTF-8"?>
<svg xmlns="http://www.w3.org/2000/svg" viewBox="0 0 32 32" width="32" height="32">
  <defs>
    <style>
      .logo-text {
        fill: #e63d20;
      }
      .logo-dot {
        fill: #e63d20;
      }
    </style>
  </defs>
  <!-- Simplified "dt" text optimized for small sizes -->
  <g>
    <!-- Letter "d" -->
    <path class="logo-text" d="M4,6 C4,6 4,3 4,3 L4,3 Q8,3 10,5 Q12,7 12,11 L12,13 Q12,17 10,19 Q8,21 4,21 L4,21 L4,6 Z M7,6 L7,18 Q9,18 9,13 L9,11 Q9,6 7,6 Z"/>
    
    <!-- Letter "t" -->
    <path class="logo-text" d="M16,5 L16,8 L20,8 L20,11 L16,11 L16,16 Q16,18 18,18 L20,18 L20,21 L18,21 Q14,21 14,16 L14,11 L12,11 L12,8 L14,8 L14,3 L16,3 L16,5 Z"/>
  </g>
  
  <!-- Dot accent -->
  <circle class="logo-dot" cx="26" cy="8" r="3"/>
</svg>