<?xml version="1.0" encoding="UTF-8"?>
<svg id="outputsvg" xmlns="http://www.w3.org/2000/svg" viewBox="0 0 371.93 245.42">
  <defs>
    <style>
      .cls-1 {
        fill: #e63d20;
      }
    </style>
  </defs>
  <g id="l33584sJa8SmmsUzsT3yhdh">
    <g>
      <path id="pd7lKLlva" d="M306.42,245.02c-4.49-.47-10.59-2.17-16.21-4.49-11.11-4.58-17.63-11.2-21.17-21.6-2.6-7.61-2.55-6.05-2.55-75.01v-61.19c0-1.42-1.05-2.62-2.46-2.81h0c-1.37-.14-5.34-.28-8.74-.28h-6.29l-.09,82.62-.14,82.57h-60.5V76.57l32.14-.24,26.74-.24c3.59-.03,7.15-.54,10.6-1.51h0c24.67-7.04,39.37-16.26,50.48-31.67,7.42-10.35,12.62-24.96,13.47-37.72l.33-4.73,1.7-.14c1.65-.14,1.7-.09,1.99,1.65.19.99.33,18.1.33,38.05v36.3l22.83.09,22.78.14.14,6.29.14,6.24h-46.37v52.37c0,28.78.24,54.92.47,58.04.61,8.04,1.61,12.62,3.69,16.73,2.27,4.58,4.73,6.29,9.55,6.52,12.05.71,24.01-8.89,28.55-22.92.8-2.36.9-2.51,2.46-2.51h1.61v2.51c0,4.49-2.27,12.1-5.67,18.86-5.58,11.2-13.85,18.24-26.23,22.26-11.91,3.92-22.64,5.2-33.56,4.06Z"/>
      <path id="p5NRPViZs" d="M59.22,244.13c-8.37-1.89-19.71-6.81-26.52-11.34-11.34-7.66-22.07-21.84-27.04-35.69-7.61-21.32-7.56-51.52.14-72.79,6.38-17.68,19.38-32.94,34.65-40.6,1.94-.99,5.67-2.46,8.27-3.36,17.68-5.86,41.59-4.16,58.66,4.21l4.06,1.99.09-43.3.14-43.25h60.03v244.84h-60.03l-.24-6.71-.24-6.71-2.84,2.17c-5.91,4.44-17.72,9.31-26.14,10.78-5.77,1.04-18.1.9-23.02-.24ZM105.07,226.59c1.04-.28,2.88-.95,4.16-1.47l2.22-.95V92.03l-1.51-.28c-.85-.14-4.44-.38-7.94-.57-10.35-.47-15.22.99-20.89,6.33-8.46,7.99-14.46,22.26-17.25,40.98-1.09,7.14-1.23,35.02-.24,42.3,1.8,13.28,4.87,24.39,8.93,32.28,3.92,7.61,8.98,11.58,16.92,13.28,3.97.8,12.95.95,15.6.24Z"/>
    </g>
  </g>
  <circle class="cls-1" cx="220.05" cy="31.79" r="31.79"/>
</svg>